# xmcd
#
# Track frame offsets:
#	150
#	23117
#	40152
#	50619
#	66447
#	79260
#	95074
#	108643
#	123910
#	135890
#	149896
#	162783
#	178084
#	193645
#	208493
#
# Disc length: 2969 seconds
#
# Revision: 0
# Processed by: cddbd v1.5.2PL0 Copyright (c) Steve Scherf et al.
# Submitted via: audiograbber 1.83.01
#
DISCID=e40b970f
DTITLE=Sound Choice - 70's and 80's Country - Vol. 4 SC 8424
DYEAR=1900
DGENRE=Karaoke
TTITLE0=Merle Haggard - I Think I'll Just Stay Here And Drink
TTITLE1=Exile - Crazy For Your Love
TTITLE2=George Strait - Right Or Wrong
TTITLE3=Sylvia - Fallin' In Love
TTITLE4=John Conlee - Backside Of Thirty
TTITLE5=Highway 101 - Somewhere Tonight
TTITLE6=Larry Gatlin and The Gatlin Brothers - All The Gold In California
TTITLE7=Willie Nelson - My Heros Have Always Been Cowboys
TTITLE8=Ronnie Milsap - Daydreams About Night Things
TTITLE9=Don Williams - You're My Best Friend
TTITLE10=Hank Williams Jr. - Dixie On My Mind
TTITLE11=Dan Seals - One Friend
TTITLE12=Mel Tillis - Good Woman Blues
TTITLE13=Johnny Rodriguez - Love Put A Song In My Heart
TTITLE14=Tanya Tucker - The Man That Turned My Mama On
EXTD=
EXTT0=
EXTT1=
EXTT2=
EXTT3=
EXTT4=
EXTT5=
EXTT6=
EXTT7=
EXTT8=
EXTT9=
EXTT10=
EXTT11=
EXTT12=
EXTT13=
EXTT14=
PLAYORDER=
